<mxfile host="Electron" modified="2024-03-21T20:47:24.659Z" agent="Mozilla/5.0 (Windows NT 10.0; Win64; x64) AppleWebKit/537.36 (KHTML, like Gecko) draw.io/24.0.4 Chrome/120.0.6099.109 Electron/28.1.0 Safari/537.36" etag="mth3GbvSWk4xqVDygW4u" version="24.0.4" type="device">
  <diagram name="Page-1" id="PGMmr_-R1tG4gh6owjA4">
    <mxGraphModel dx="455" dy="281" grid="1" gridSize="10" guides="1" tooltips="1" connect="1" arrows="1" fold="1" page="1" pageScale="1" pageWidth="850" pageHeight="1100" math="1" shadow="0">
      <root>
        <mxCell id="0" />
        <mxCell id="1" parent="0" />
        <mxCell id="mM30Vt0wtESqFoJkei9S-1" value="" style="pointerEvents=1;verticalLabelPosition=bottom;shadow=0;dashed=0;align=center;html=1;verticalAlign=top;shape=mxgraph.electrical.signal_sources.dc_source_1;" vertex="1" parent="1">
          <mxGeometry x="180" y="340" width="70" height="75" as="geometry" />
        </mxCell>
        <mxCell id="mM30Vt0wtESqFoJkei9S-3" value="" style="html=1;shape=mxgraph.electrical.electro-mechanical.singleSwitch;aspect=fixed;elSwitchState=off;" vertex="1" parent="1">
          <mxGeometry x="260" y="304.5" width="75" height="20" as="geometry" />
        </mxCell>
        <mxCell id="mM30Vt0wtESqFoJkei9S-6" value="" style="endArrow=none;html=1;rounded=0;entryX=0;entryY=0.8;entryDx=0;entryDy=0;" edge="1" parent="1" target="mM30Vt0wtESqFoJkei9S-3">
          <mxGeometry width="50" height="50" relative="1" as="geometry">
            <mxPoint x="220" y="320.5" as="sourcePoint" />
            <mxPoint x="320" y="324.5" as="targetPoint" />
          </mxGeometry>
        </mxCell>
        <mxCell id="mM30Vt0wtESqFoJkei9S-10" value="" style="pointerEvents=1;verticalLabelPosition=bottom;shadow=0;dashed=0;align=center;html=1;verticalAlign=top;shape=mxgraph.electrical.resistors.resistor_2;" vertex="1" parent="1">
          <mxGeometry x="360" y="310.5" width="100" height="20" as="geometry" />
        </mxCell>
        <mxCell id="mM30Vt0wtESqFoJkei9S-12" value="" style="pointerEvents=1;verticalLabelPosition=bottom;shadow=0;dashed=0;align=center;html=1;verticalAlign=top;shape=mxgraph.electrical.capacitors.capacitor_1;direction=south;" vertex="1" parent="1">
          <mxGeometry x="450" y="327.5" width="60" height="100" as="geometry" />
        </mxCell>
        <mxCell id="mM30Vt0wtESqFoJkei9S-15" value="" style="endArrow=none;html=1;rounded=0;entryX=1;entryY=0.5;entryDx=0;entryDy=0;entryPerimeter=0;" edge="1" parent="1" target="mM30Vt0wtESqFoJkei9S-10">
          <mxGeometry width="50" height="50" relative="1" as="geometry">
            <mxPoint x="480" y="320.5" as="sourcePoint" />
            <mxPoint x="400" y="170.5" as="targetPoint" />
          </mxGeometry>
        </mxCell>
        <mxCell id="mM30Vt0wtESqFoJkei9S-16" value="" style="endArrow=none;html=1;rounded=0;" edge="1" parent="1">
          <mxGeometry width="50" height="50" relative="1" as="geometry">
            <mxPoint x="480" y="440" as="sourcePoint" />
            <mxPoint x="220" y="440" as="targetPoint" />
          </mxGeometry>
        </mxCell>
        <mxCell id="mM30Vt0wtESqFoJkei9S-17" value="" style="endArrow=none;html=1;rounded=0;entryX=0.58;entryY=0.935;entryDx=0;entryDy=0;entryPerimeter=0;" edge="1" parent="1" target="mM30Vt0wtESqFoJkei9S-1">
          <mxGeometry width="50" height="50" relative="1" as="geometry">
            <mxPoint x="220" y="440" as="sourcePoint" />
            <mxPoint x="320" y="360" as="targetPoint" />
          </mxGeometry>
        </mxCell>
        <mxCell id="mM30Vt0wtESqFoJkei9S-18" value="" style="endArrow=none;html=1;rounded=0;entryX=0;entryY=0.5;entryDx=0;entryDy=0;entryPerimeter=0;" edge="1" parent="1" target="mM30Vt0wtESqFoJkei9S-12">
          <mxGeometry width="50" height="50" relative="1" as="geometry">
            <mxPoint x="480" y="320" as="sourcePoint" />
            <mxPoint x="390" y="300" as="targetPoint" />
          </mxGeometry>
        </mxCell>
        <mxCell id="mM30Vt0wtESqFoJkei9S-19" value="" style="endArrow=none;html=1;rounded=0;exitX=0.58;exitY=0.135;exitDx=0;exitDy=0;exitPerimeter=0;" edge="1" parent="1" source="mM30Vt0wtESqFoJkei9S-1">
          <mxGeometry width="50" height="50" relative="1" as="geometry">
            <mxPoint x="340" y="380" as="sourcePoint" />
            <mxPoint x="220" y="320" as="targetPoint" />
          </mxGeometry>
        </mxCell>
        <mxCell id="mM30Vt0wtESqFoJkei9S-20" value="" style="endArrow=none;html=1;rounded=0;entryX=1;entryY=0.5;entryDx=0;entryDy=0;entryPerimeter=0;" edge="1" parent="1" target="mM30Vt0wtESqFoJkei9S-12">
          <mxGeometry width="50" height="50" relative="1" as="geometry">
            <mxPoint x="480" y="440" as="sourcePoint" />
            <mxPoint x="390" y="330" as="targetPoint" />
          </mxGeometry>
        </mxCell>
        <mxCell id="mM30Vt0wtESqFoJkei9S-21" value="$$R$$" style="text;html=1;align=center;verticalAlign=middle;resizable=0;points=[];autosize=1;strokeColor=none;fillColor=none;" vertex="1" parent="1">
          <mxGeometry x="380" y="290" width="60" height="30" as="geometry" />
        </mxCell>
        <mxCell id="mM30Vt0wtESqFoJkei9S-22" value="$$C$$" style="text;html=1;align=center;verticalAlign=middle;resizable=0;points=[];autosize=1;strokeColor=none;fillColor=none;" vertex="1" parent="1">
          <mxGeometry x="410" y="362.5" width="60" height="30" as="geometry" />
        </mxCell>
        <mxCell id="mM30Vt0wtESqFoJkei9S-23" value="$$E$$" style="text;html=1;align=center;verticalAlign=middle;resizable=0;points=[];autosize=1;strokeColor=none;fillColor=none;" vertex="1" parent="1">
          <mxGeometry x="230" y="362.5" width="60" height="30" as="geometry" />
        </mxCell>
        <mxCell id="mM30Vt0wtESqFoJkei9S-24" style="edgeStyle=orthogonalEdgeStyle;rounded=0;orthogonalLoop=1;jettySize=auto;html=1;exitX=1;exitY=0.8;exitDx=0;exitDy=0;entryX=0;entryY=0.5;entryDx=0;entryDy=0;entryPerimeter=0;endArrow=none;endFill=0;" edge="1" parent="1" source="mM30Vt0wtESqFoJkei9S-3" target="mM30Vt0wtESqFoJkei9S-10">
          <mxGeometry relative="1" as="geometry" />
        </mxCell>
      </root>
    </mxGraphModel>
  </diagram>
</mxfile>
